<svg width="224" height="224" viewBox="0 0 224 224" fill="none" xmlns="http://www.w3.org/2000/svg">
<path d="M111.717 94.5656C111.717 96.6563 113.397 98.2989 115.45 98.2989C119.706 98.2989 123.141 101.771 123.141 105.99C123.141 108.043 124.821 109.723 126.874 109.723C128.927 109.723 130.607 108.043 130.607 105.99C130.607 97.6269 123.813 90.8323 115.45 90.8323C113.397 90.8323 111.717 92.5123 111.717 94.5656ZM172.495 109.723C174.586 109.723 176.229 108.043 176.229 105.99C176.229 72.4643 148.975 45.2109 115.45 45.2109C113.397 45.2109 111.717 46.8909 111.717 48.9443C111.717 50.9976 113.397 52.6776 115.45 52.6776C144.869 52.6776 168.762 76.6083 168.762 105.99C168.762 108.043 170.442 109.723 172.495 109.723Z" fill="#5AC994"/>
<path d="M145.952 105.99C145.952 108.043 147.632 109.723 149.685 109.723C151.738 109.723 153.418 108.043 153.418 105.99C153.418 85.0457 136.394 68.0217 115.45 68.0217C113.397 68.0217 111.717 69.7017 111.717 71.7551C111.717 73.8457 113.397 75.4884 115.45 75.4884C132.288 75.4884 145.952 89.1897 145.952 105.99ZM115.45 22.4004C113.397 22.4004 111.717 24.0804 111.717 26.1337C111.717 28.1871 113.397 29.8671 115.45 29.8671C157.45 29.8671 191.61 64.0271 191.61 105.99C191.61 108.043 193.253 109.723 195.344 109.723C197.397 109.723 199.077 108.043 199.077 105.99C199.077 59.8831 161.557 22.4004 115.45 22.4004ZM151.925 145.339L147.034 147.99C138.784 152.507 128.33 150.976 121.648 144.294L82.2238 104.87C75.5411 98.1871 74.0105 87.7337 78.5278 79.4457L81.1784 74.5924C84.1651 69.0671 85.2478 62.8697 84.3518 56.6724C83.5054 50.4876 80.6451 44.7538 76.2131 40.3577C70.7624 34.9071 63.5198 31.9204 55.7918 31.9204C48.0638 31.9204 40.7838 34.9071 35.3331 40.3577L33.4291 42.2991C23.3491 52.3791 22.1918 69.7391 30.1438 91.2431C37.6478 111.776 52.7678 134.027 72.6291 153.888C102.906 184.166 136.618 201.6 160.81 201.6C170.368 201.6 178.469 198.875 184.218 193.126L186.16 191.184C188.848 188.499 190.98 185.31 192.435 181.799C193.889 178.289 194.636 174.526 194.634 170.726C194.582 163.074 191.541 155.745 186.16 150.304C177.162 141.307 163.088 139.291 151.925 145.339Z" fill="#5AC994"/>
</svg>
