<svg width="71" height="70" viewBox="0 0 71 70" fill="none" xmlns="http://www.w3.org/2000/svg">
<circle cx="35.5" cy="34.6467" r="34.6467" fill="#5AC994"/>
<path d="M30.9745 24.3037V27.4735C30.9745 28.0571 30.4302 28.5301 29.7589 28.5301H26.1123C25.4409 28.5301 24.8967 28.0571 24.8967 27.4735V24.3037C24.8967 23.7201 25.4409 23.2471 26.1123 23.2471H29.7589C30.4302 23.2471 30.9745 23.7201 30.9745 24.3037Z" stroke="white" stroke-width="3.38738" stroke-linecap="round" stroke-linejoin="round"/>
<path d="M24.8967 33.8145H30.9745" stroke="white" stroke-width="3.38738" stroke-linecap="round" stroke-linejoin="round"/>
<path d="M43.1292 33.8145V39.0975" stroke="white" stroke-width="3.38738" stroke-linecap="round" stroke-linejoin="round"/>
<path d="M37.0544 44.3799H43.1322" stroke="white" stroke-width="3.38738" stroke-linecap="round" stroke-linejoin="round"/>
<path d="M37.0544 33.8411L37.0801 33.8145" stroke="white" stroke-width="3.38738" stroke-linecap="round" stroke-linejoin="round"/>
<path d="M49.207 33.8411L49.2326 33.8145" stroke="white" stroke-width="3.38738" stroke-linecap="round" stroke-linejoin="round"/>
<path d="M37.0544 39.1234L37.0801 39.0967" stroke="white" stroke-width="3.38738" stroke-linecap="round" stroke-linejoin="round"/>
<path d="M49.207 39.1234L49.2326 39.0967" stroke="white" stroke-width="3.38738" stroke-linecap="round" stroke-linejoin="round"/>
<path d="M49.207 44.4066L49.2326 44.3799" stroke="white" stroke-width="3.38738" stroke-linecap="round" stroke-linejoin="round"/>
<path d="M37.0544 28.558L37.0801 28.5312" stroke="white" stroke-width="3.38738" stroke-linecap="round" stroke-linejoin="round"/>
<path d="M37.0544 23.2738L37.0801 23.2471" stroke="white" stroke-width="3.38738" stroke-linecap="round" stroke-linejoin="round"/>
<path d="M30.9745 40.1533V43.3231C30.9745 43.9067 30.4302 44.3797 29.7589 44.3797H26.1123C25.4409 44.3797 24.8967 43.9067 24.8967 43.3231V40.1533C24.8967 39.5697 25.4409 39.0967 26.1123 39.0967H29.7589C30.4302 39.0967 30.9745 39.5697 30.9745 40.1533Z" stroke="white" stroke-width="3.38738" stroke-linecap="round" stroke-linejoin="round"/>
<path d="M49.2069 24.3037V27.4735C49.2069 28.0571 48.6628 28.5301 47.9914 28.5301H44.3447C43.6733 28.5301 43.1292 28.0571 43.1292 27.4735V24.3037C43.1292 23.7201 43.6733 23.2471 44.3447 23.2471H47.9914C48.6628 23.2471 49.2069 23.7201 49.2069 24.3037Z" stroke="white" stroke-width="3.38738" stroke-linecap="round" stroke-linejoin="round"/>
<path d="M49.207 17.9648H55.2847V23.2479" stroke="white" stroke-width="3.38738" stroke-linecap="round" stroke-linejoin="round"/>
<path d="M49.207 49.6629H55.2847V44.3799" stroke="white" stroke-width="3.38738" stroke-linecap="round" stroke-linejoin="round"/>
<path d="M24.896 17.9648H18.8183V23.2479" stroke="white" stroke-width="3.38738" stroke-linecap="round" stroke-linejoin="round"/>
<path d="M24.896 49.6629H18.8182V44.3799" stroke="white" stroke-width="3.38738" stroke-linecap="round" stroke-linejoin="round"/>
</svg>
